<?xml version="1.0" encoding="UTF-8"?> <svg xmlns="http://www.w3.org/2000/svg" width="97" height="91" viewBox="0 0 97 91" fill="none"> <path d="M12.9874 64.7143C17.3938 58.7462 21.8002 52.778 26.2066 46.81C26.8124 47.6444 27.3953 48.5338 28.0689 49.3966C21.024 50.2584 13.8884 51.1469 6.84356 52.0087C5.91472 52.1366 4.9013 51.3254 4.74777 50.551C4.5495 49.6934 5.2099 49.0659 6.13874 48.938C13.1836 48.0761 20.3192 47.1877 27.364 46.3258C28.9726 46.0949 29.9339 47.9818 29.2263 48.9124C24.8199 54.8805 20.4135 60.8486 16.0072 66.8167C15.5052 67.446 14.3055 67.4606 13.517 66.8725C12.6378 66.311 12.5532 65.3718 12.9874 64.7143Z" fill="black"></path> <path d="M28.6977 60.8281C31.1956 55.9983 34.3707 51.4518 38.154 47.3535C40.0457 45.3043 42.1406 43.3401 44.2802 41.4592C44.4168 41.3227 44.6455 40.9665 44.8269 40.9133C45.099 40.8334 44.8051 40.775 45.03 40.9982C45.5029 41.3897 44.5995 41.0764 44.3056 41.018C42.6766 40.9175 41.0245 40.872 39.3495 40.8814C35.6825 40.8969 32.0374 41.0505 28.4817 41.3707C26.2394 41.5947 25.5346 38.5239 27.7769 38.2999C31.2648 37.9514 34.8423 37.7694 38.4863 37.8089C40.229 37.8278 41.9717 37.8467 43.7592 37.9489C45.3883 38.0494 47.3777 38.4297 48.1831 39.9286C49.0331 41.5108 48.1199 42.7427 47.0048 43.6965C45.8666 44.7052 44.7285 45.7138 43.6581 46.7509C41.4035 48.9065 39.397 51.2304 37.5028 53.6659C35.426 56.3477 33.6649 59.2262 32.1069 62.1896C31.7404 62.8756 30.7874 63.2516 29.8392 62.8549C29.0036 62.5699 28.399 61.5423 28.6977 60.8281Z" fill="black"></path> <path d="M50.0368 51.0974C52.648 49.8011 54.3825 47.5571 56.2282 45.6178C58.3473 43.4055 60.5341 41.2216 62.6532 39.0093C63.7466 37.9173 64.7492 36.8519 65.8426 35.76C66.0023 35.5685 66.1619 35.3771 66.3893 35.214C66.6856 34.886 66.3906 35.0208 66.503 35.1324C66.4353 35.1041 66.7715 35.632 66.7715 35.632C66.7715 35.632 65.3238 35.4784 65.0976 35.4483C61.4779 35.1607 57.8582 34.8731 54.2385 34.5855C50.1435 34.2927 46.0714 33.9449 41.9764 33.6522C40.9811 33.5586 40.2858 32.5576 40.2677 31.8399C40.3186 30.9574 41.2039 30.5531 42.1315 30.6183C46.1358 30.9377 50.2079 31.2854 54.2351 31.5499C58.2395 31.8693 62.222 32.0504 66.2481 32.508C67.9896 32.7201 69.7492 33.6499 70.0103 35.3084C70.2714 36.967 68.589 38.1354 67.5863 39.2008C65.2169 41.6311 62.8704 44.0065 60.5009 46.4368C59.2249 47.7751 57.8582 49.1401 56.5821 50.4785C55.3521 51.7069 54.0543 52.9071 52.4191 53.7724C51.6245 54.1501 50.5614 54.0282 49.9096 53.3037C49.2578 52.5791 49.3099 51.5034 50.0368 51.0974Z" fill="black"></path> <path d="M71.5645 47.1913C72.0615 47.3347 72.2889 47.1716 72.6977 46.9552C73.3568 46.5209 73.9942 45.9483 74.6087 45.4306C75.9052 44.4236 77.1571 43.3334 78.4536 42.3264C81.0927 40.2025 83.7318 38.0787 86.3939 35.8999C87.7364 34.783 89.1467 33.6945 90.4893 32.5776C90.967 32.1965 91.4218 31.8703 91.7641 31.4324C91.9007 31.2959 91.9467 31.186 92.0386 30.9663C92.0386 30.9663 92.1535 30.6916 92.0846 30.8564C92.0846 30.8564 92.0616 30.9113 92.1294 30.9397C92.0629 30.7182 92.0629 30.7182 92.1523 30.8847C92.6954 30.9182 92.0386 30.9663 92.1971 30.968C92.1064 30.9946 91.9262 30.8547 91.8584 30.8263C91.4968 30.7396 91.203 30.6813 90.8414 30.5946C89.8243 30.3628 88.8072 30.131 87.7671 29.9541C85.9361 29.5755 84.0144 29.2235 82.1604 28.8998C77.9324 28.1641 73.6584 27.5382 69.3832 27.1055C68.3879 27.0119 67.6696 26.0659 67.6745 25.2932C67.7254 24.4107 68.6107 24.0064 69.5383 24.0716C73.8812 24.5327 78.1552 25.1586 82.4509 25.9226C84.5988 26.3047 86.7467 26.6867 88.9163 27.207C90.8828 27.6422 93.5072 27.8363 94.9002 29.452C97.6417 32.6 92.8026 35.4175 90.8009 36.9687C87.7978 39.3922 84.7946 41.8156 81.7914 44.2391C80.1078 45.6006 78.4242 46.9622 76.7406 48.3237C75.3303 49.4122 73.7362 50.9403 71.3864 50.2801C70.46 50.0217 69.6268 49.3504 69.6777 48.4678C69.7285 47.5853 70.5703 46.9046 71.5645 47.1913Z" fill="black"></path> </svg> 