<?xml version="1.0" encoding="UTF-8"?> <svg xmlns="http://www.w3.org/2000/svg" width="97" height="91" viewBox="0 0 97 91" fill="none"> <path d="M83.6629 64.714C79.2566 58.7459 74.8502 52.7778 70.4438 46.8097C69.838 47.6442 69.2551 48.5336 68.5815 49.3964C75.6264 50.2582 82.762 51.1466 89.8068 52.0085C90.7357 52.1364 91.7491 51.3251 91.9026 50.5508C92.1009 49.6931 91.4405 49.0656 90.5117 48.9377C83.4668 48.0759 76.3312 47.1874 69.2863 46.3256C67.6778 46.0946 66.7165 47.9816 67.4241 48.9122C71.8305 54.8803 76.2368 60.8484 80.6432 66.8165C81.1452 67.4457 82.3449 67.4603 83.1334 66.8722C84.0126 66.3108 84.0972 65.3716 83.6629 64.714Z" fill="black"></path> <path d="M67.9527 60.8278C65.4548 55.998 62.2797 51.4516 58.4964 47.3532C56.6047 45.3041 54.5098 43.3399 52.3702 41.459C52.2336 41.3225 52.0049 40.9662 51.8235 40.913C51.5514 40.8332 51.8453 40.7748 51.6204 40.998C51.1475 41.3895 52.0509 41.0761 52.3448 41.0177C53.9738 40.9173 55.6259 40.8718 57.3009 40.8812C60.9678 40.8966 64.613 41.0502 68.1687 41.3704C70.4109 41.5945 71.1158 38.5237 68.8735 38.2996C65.3856 37.9511 61.8081 37.7692 58.1641 37.8087C56.4214 37.8276 54.6787 37.8465 52.8912 37.9487C51.2621 38.0491 49.2727 38.4295 48.4673 39.9284C47.6173 41.5105 48.5305 42.7425 49.6456 43.6962C50.7838 44.7049 51.9219 45.7136 52.9923 46.7506C55.2468 48.9062 57.2534 51.2301 59.1476 53.6656C61.2244 56.3475 62.9855 59.2259 64.5435 62.1894C64.91 62.8753 65.863 63.2513 66.8112 62.8547C67.6468 62.5697 68.2514 61.5421 67.9527 60.8278Z" fill="black"></path> <path d="M46.6136 51.0971C44.0024 49.8009 42.2679 47.5568 40.4222 45.6175C38.3031 43.4052 36.1163 41.2213 33.9972 39.009C32.9038 37.9171 31.9012 36.8517 30.8078 35.7597C30.6481 35.5683 30.4885 35.3768 30.2611 35.2137C29.9647 34.8858 30.2598 35.0206 30.1474 35.1322C30.2151 35.1039 29.8789 35.6318 29.8789 35.6318C29.8789 35.6318 31.3266 35.4781 31.5527 35.4481C35.1725 35.1605 38.7922 34.8728 42.4119 34.5852C46.5069 34.2924 50.579 33.9447 54.674 33.6519C55.6693 33.5583 56.3646 32.5574 56.3827 31.8397C56.3318 30.9572 55.4465 30.5528 54.5189 30.6181C50.5146 30.9375 46.4425 31.2852 42.4152 31.5496C38.4109 31.869 34.4284 32.0502 30.4023 32.5078C28.6608 32.7199 26.9012 33.6496 26.6401 35.3082C26.379 36.9668 28.0614 38.1351 29.0641 39.2005C31.4335 41.6308 33.78 44.0062 36.1494 46.4365C37.4255 47.7749 38.7922 49.1399 40.0683 50.4782C41.2983 51.7067 42.5961 52.9068 44.2313 53.7722C45.0259 54.1499 46.089 54.028 46.7408 53.3034C47.3926 52.5789 47.3405 51.5032 46.6136 51.0971Z" fill="black"></path> <path d="M25.0859 47.1913C24.5889 47.3347 24.3615 47.1716 23.9527 46.9552C23.2935 46.5209 22.6562 45.9483 22.0417 45.4306C20.7452 44.4236 19.4933 43.3334 18.1968 42.3264C15.5577 40.2025 12.9186 38.0787 10.2565 35.8999C8.91394 34.783 7.50367 33.6945 6.16113 32.5776C5.68338 32.1965 5.22862 31.8703 4.88632 31.4324C4.74964 31.2959 4.7037 31.186 4.61176 30.9663C4.61176 30.9663 4.49684 30.6916 4.56579 30.8564C4.56579 30.8564 4.58875 30.9113 4.52103 30.9397C4.58753 30.7182 4.58752 30.7182 4.49804 30.8847C3.95502 30.9182 4.61175 30.9663 4.45332 30.968C4.54403 30.9946 4.72422 30.8547 4.79194 30.8263C5.15355 30.7396 5.4474 30.6813 5.809 30.5946C6.82609 30.3628 7.84319 30.131 8.88326 29.9541C10.7143 29.5755 12.636 29.2235 14.49 28.8998C18.718 28.1641 22.992 27.5382 27.2672 27.1055C28.2625 27.0119 28.9808 26.0659 28.9759 25.2932C28.925 24.4107 28.0397 24.0064 27.1121 24.0716C22.7692 24.5327 18.4952 25.1586 14.1994 25.9226C12.0516 26.3047 9.90371 26.6867 7.73409 27.207C5.76763 27.6422 3.14324 27.8363 1.75014 29.452C-0.991302 32.6 3.84778 35.4175 5.84947 36.9687C8.85264 39.3922 11.8558 41.8156 14.859 44.2391C16.5426 45.6006 18.2262 46.9622 19.9098 48.3237C21.3201 49.4122 22.9142 50.9403 25.264 50.2801C26.1904 50.0217 27.0236 49.3504 26.9727 48.4678C26.9219 47.5853 26.08 46.9046 25.0859 47.1913Z" fill="black"></path> </svg> 